<svg width="1700" height="500" viewBox="0 0 1700 500" version="1.1" xmlns="http://www.w3.org/2000/svg" xmlns:xlink="http://www.w3.org/1999/xlink">
<title>Frame</title>
<desc>Created using Figma</desc>
<g id="Canvas" transform="matrix(2 0 0 2 0 0)">
<clipPath id="clip-0" clip-rule="evenodd">
<path d="M 2.84217e-14 0L 850 0L 850 250L 2.84217e-14 250L 2.84217e-14 0Z" fill="#FFFFFF"/>
</clipPath>
<g id="Frame" clip-path="url(#clip-0)">
<g id="&#60;`${ rstyle }`/&#62;">
<use xlink:href="#path0_fill" transform="translate(52 75)" fill="#212121"/>
<use xlink:href="#path1_fill" transform="translate(52 75)" fill="#FFC107"/>
<use xlink:href="#path2_fill" transform="translate(52 75)" fill="#E91E63"/>
</g>
</g>
</g>
<defs>
<path id="path0_fill" d="M 131.672 71.5469L 94.1328 55.0625L 94.1328 51.2344L 131.672 32.5234L 131.672 38.3438L 101.125 52.8359L 131.672 65.6484L 131.672 71.5469ZM 166.555 32.5234L 162.258 32.5234C 160.565 31.1693 158.56 29.2422 156.242 26.7422C 153.924 24.2422 152.245 22.1719 151.203 20.5312L 151.203 19.7109L 159.133 19.7109C 159.966 21.5078 161.125 23.5911 162.609 25.9609C 164.094 28.3047 165.409 30.1667 166.555 31.5469L 166.555 32.5234ZM 565.305 32.5234L 561.008 32.5234C 559.315 31.1693 557.31 29.2422 554.992 26.7422C 552.674 24.2422 550.995 22.1719 549.953 20.5312L 549.953 19.7109L 557.883 19.7109C 558.716 21.5078 559.875 23.5911 561.359 25.9609C 562.844 28.3047 564.159 30.1667 565.305 31.5469L 565.305 32.5234ZM 609.328 23.8906L 588.039 81L 581.555 81L 602.844 23.8906L 609.328 23.8906ZM 614.211 65.6484L 644.797 52.9141L 614.211 38.3438L 614.211 32.5234L 651.75 51.2344L 651.75 55.0625L 614.211 71.5469L 614.211 65.6484Z"/>
<path id="path1_fill" d="M 222.492 63.4609C 222.492 67.0026 221.164 69.9323 218.508 72.25C 215.852 74.5417 212.141 75.987 207.375 76.5859L 207.375 85.6484L 202.336 85.6484L 202.336 76.9375C 199.419 76.9375 196.594 76.7161 193.859 76.2734C 191.125 75.8047 188.885 75.1667 187.141 74.3594L 187.141 68.2656C 189.302 69.2292 191.789 70.0234 194.602 70.6484C 197.44 71.2474 200.018 71.5469 202.336 71.5469L 202.336 54.3594C 196.997 52.6667 193.247 50.7005 191.086 48.4609C 188.951 46.2214 187.883 43.3307 187.883 39.7891C 187.883 36.3776 189.198 33.5781 191.828 31.3906C 194.484 29.2031 197.987 27.875 202.336 27.4062L 202.336 20.2969L 207.375 20.2969L 207.375 27.3281C 212.167 27.4583 216.789 28.4219 221.242 30.2188L 219.211 35.3359C 215.331 33.7995 211.385 32.888 207.375 32.6016L 207.375 49.5547C 211.464 50.8568 214.523 52.1328 216.555 53.3828C 218.586 54.6068 220.083 56.026 221.047 57.6406C 222.01 59.2292 222.492 61.1693 222.492 63.4609ZM 215.852 63.9688C 215.852 62.0938 215.266 60.5833 214.094 59.4375C 212.948 58.2656 210.708 57.1068 207.375 55.9609L 207.375 71.1562C 213.026 70.375 215.852 67.9792 215.852 63.9688ZM 194.484 39.7109C 194.484 41.6901 195.07 43.2786 196.242 44.4766C 197.414 45.6745 199.445 46.8073 202.336 47.875L 202.336 32.7578C 199.758 33.1745 197.805 33.9948 196.477 35.2188C 195.148 36.4167 194.484 37.9141 194.484 39.7109ZM 246.359 80.5312C 246.359 83.1875 247.115 85.1146 248.625 86.3125C 250.161 87.5104 252.401 88.1354 255.344 88.1875L 255.344 93.6562C 250.396 93.6042 246.568 92.4714 243.859 90.2578C 241.151 88.0443 239.797 84.9323 239.797 80.9219L 239.797 69.0859C 239.797 66.3776 238.977 64.4505 237.336 63.3047C 235.695 62.1328 233.312 61.5469 230.188 61.5469L 230.188 56.0391C 233.573 55.987 236.021 55.362 237.531 54.1641C 239.042 52.9661 239.797 51.1172 239.797 48.6172L 239.797 36.6641C 239.797 32.6276 241.203 29.4896 244.016 27.25C 246.828 25.0104 250.604 23.8906 255.344 23.8906L 255.344 29.3203C 249.354 29.4766 246.359 32.0677 246.359 37.0938L 246.359 48.6172C 246.359 54.2161 243.456 57.5234 237.648 58.5391L 237.648 59.0078C 243.456 60.0234 246.359 63.3307 246.359 68.9297L 246.359 80.5312ZM 524.68 58.5391C 518.872 57.5234 515.969 54.2161 515.969 48.6172L 515.969 37.0938C 515.969 32.0677 513.013 29.4766 507.102 29.3203L 507.102 23.8906C 511.893 23.8906 515.656 25.0234 518.391 27.2891C 521.151 29.5547 522.531 32.6797 522.531 36.6641L 522.531 48.6172C 522.531 51.1432 523.299 53.0052 524.836 54.2031C 526.372 55.375 528.833 55.987 532.219 56.0391L 532.219 61.5469C 529.042 61.5469 526.633 62.1328 524.992 63.3047C 523.352 64.4505 522.531 66.3776 522.531 69.0859L 522.531 80.9219C 522.531 84.9062 521.19 88.0052 518.508 90.2188C 515.852 92.4583 512.049 93.6042 507.102 93.6562L 507.102 88.1875C 509.992 88.1354 512.193 87.5104 513.703 86.3125C 515.214 85.1146 515.969 83.1875 515.969 80.5312L 515.969 68.9297C 515.969 65.9609 516.685 63.6953 518.117 62.1328C 519.549 60.5703 521.737 59.5286 524.68 59.0078L 524.68 58.5391Z"/>
<path id="path2_fill" d="M 305.305 37.4062C 307.206 37.4062 308.911 37.5625 310.422 37.875L 309.523 43.8906C 307.753 43.5 306.19 43.3047 304.836 43.3047C 301.372 43.3047 298.404 44.7109 295.93 47.5234C 293.482 50.3359 292.258 53.8385 292.258 58.0312L 292.258 81L 285.773 81L 285.773 38.1875L 291.125 38.1875L 291.867 46.1172L 292.18 46.1172C 293.768 43.3307 295.682 41.1823 297.922 39.6719C 300.161 38.1615 302.622 37.4062 305.305 37.4062ZM 346.047 69.3203C 346.047 73.3047 344.562 76.3776 341.594 78.5391C 338.625 80.7005 334.458 81.7812 329.094 81.7812C 323.417 81.7812 318.99 80.8828 315.812 79.0859L 315.812 73.0703C 317.87 74.112 320.07 74.9323 322.414 75.5312C 324.784 76.1302 327.062 76.4297 329.25 76.4297C 332.635 76.4297 335.24 75.8958 337.062 74.8281C 338.885 73.7344 339.797 72.0807 339.797 69.8672C 339.797 68.2005 339.068 66.7812 337.609 65.6094C 336.177 64.4115 333.365 63.0052 329.172 61.3906C 325.188 59.9062 322.349 58.6172 320.656 57.5234C 318.99 56.4036 317.74 55.1406 316.906 53.7344C 316.099 52.3281 315.695 50.6484 315.695 48.6953C 315.695 45.2057 317.115 42.4583 319.953 40.4531C 322.792 38.4219 326.685 37.4062 331.633 37.4062C 336.242 37.4062 340.747 38.3438 345.148 40.2188L 342.844 45.4922C 338.547 43.7214 334.654 42.8359 331.164 42.8359C 328.091 42.8359 325.773 43.3177 324.211 44.2812C 322.648 45.2448 321.867 46.5729 321.867 48.2656C 321.867 49.4115 322.154 50.388 322.727 51.1953C 323.326 52.0026 324.276 52.7708 325.578 53.5C 326.88 54.2292 329.38 55.2839 333.078 56.6641C 338.156 58.513 341.581 60.375 343.352 62.25C 345.148 64.125 346.047 66.4818 346.047 69.3203ZM 370.461 76.4297C 371.607 76.4297 372.714 76.3516 373.781 76.1953C 374.849 76.013 375.695 75.8307 376.32 75.6484L 376.32 80.6094C 375.617 80.9479 374.576 81.2214 373.195 81.4297C 371.841 81.6641 370.617 81.7812 369.523 81.7812C 361.242 81.7812 357.102 77.4193 357.102 68.6953L 357.102 43.2266L 350.969 43.2266L 350.969 40.1016L 357.102 37.4062L 359.836 28.2656L 363.586 28.2656L 363.586 38.1875L 376.008 38.1875L 376.008 43.2266L 363.586 43.2266L 363.586 68.4219C 363.586 71 364.198 72.9792 365.422 74.3594C 366.646 75.7396 368.326 76.4297 370.461 76.4297ZM 378.117 38.1875L 385.07 38.1875L 394.445 62.6016C 396.503 68.1745 397.779 72.1979 398.273 74.6719L 398.586 74.6719C 398.924 73.3438 399.628 71.0781 400.695 67.875C 401.789 64.6458 405.331 54.75 411.32 38.1875L 418.273 38.1875L 399.875 86.9375C 398.052 91.7552 395.917 95.1667 393.469 97.1719C 391.047 99.2031 388.065 100.219 384.523 100.219C 382.544 100.219 380.591 99.9974 378.664 99.5547L 378.664 94.3594C 380.096 94.6719 381.698 94.8281 383.469 94.8281C 387.922 94.8281 391.099 92.3281 393 87.3281L 395.383 81.2344L 378.117 38.1875ZM 431.711 81L 425.227 81L 425.227 20.2188L 431.711 20.2188L 431.711 81ZM 463.547 81.7812C 457.219 81.7812 452.219 79.8542 448.547 76C 444.901 72.1458 443.078 66.7943 443.078 59.9453C 443.078 53.0443 444.771 47.5625 448.156 43.5C 451.568 39.4375 456.138 37.4062 461.867 37.4062C 467.232 37.4062 471.477 39.1771 474.602 42.7188C 477.727 46.2344 479.289 50.8828 479.289 56.6641L 479.289 60.7656L 449.797 60.7656C 449.927 65.7917 451.19 69.6068 453.586 72.2109C 456.008 74.8151 459.406 76.1172 463.781 76.1172C 468.391 76.1172 472.948 75.1536 477.453 73.2266L 477.453 79.0078C 475.161 79.9974 472.987 80.7005 470.93 81.1172C 468.898 81.5599 466.438 81.7812 463.547 81.7812ZM 461.789 42.8359C 458.352 42.8359 455.604 43.9557 453.547 46.1953C 451.516 48.4349 450.318 51.5339 449.953 55.4922L 472.336 55.4922C 472.336 51.4036 471.424 48.2786 469.602 46.1172C 467.779 43.9297 465.174 42.8359 461.789 42.8359Z"/>
</defs>
</svg>
